<svg width="27" height="30" viewBox="0 0 27 30" fill="none" xmlns="http://www.w3.org/2000/svg">
<path d="M23.8371 0H3.16286C1.41943 0 0 1.38 0 3.09V23.37C0 25.08 1.41943 26.46 3.16286 26.46H20.6589L19.8411 23.685L21.816 25.47L23.6829 27.15L27 30V3.09C27 1.38 25.5806 0 23.8371 0ZM17.8817 19.59C17.8817 19.59 17.3263 18.945 16.8634 18.375C18.8846 17.82 19.656 16.59 19.656 16.59C19.0234 16.995 18.4217 17.28 17.8817 17.475C17.1103 17.79 16.3697 18 15.6446 18.12C14.1634 18.39 12.8057 18.315 11.6486 18.105C10.7691 17.94 10.0131 17.7 9.38057 17.46C9.02571 17.325 8.64 17.16 8.25429 16.95C8.208 16.92 8.16171 16.905 8.11543 16.875C8.08457 16.86 8.06914 16.845 8.05371 16.83C7.776 16.68 7.62171 16.575 7.62171 16.575C7.62171 16.575 8.36229 17.775 10.3217 18.345C9.85886 18.915 9.288 19.59 9.288 19.59C5.87829 19.485 4.58229 17.31 4.58229 17.31C4.58229 12.48 6.804 8.565 6.804 8.565C9.02571 6.945 11.1394 6.99 11.1394 6.99L11.2937 7.17C8.51657 7.95 7.236 9.135 7.236 9.135C7.236 9.135 7.57543 8.955 8.14629 8.7C9.79714 7.995 11.1086 7.8 11.6486 7.755C11.7411 7.74 11.8183 7.725 11.9109 7.725C12.852 7.605 13.9166 7.575 15.0274 7.695C16.4931 7.86 18.0669 8.28 19.6714 9.135C19.6714 9.135 18.4526 8.01 15.8297 7.23L16.0457 6.99C16.0457 6.99 18.1594 6.945 20.3811 8.565C20.3811 8.565 22.6029 12.48 22.6029 17.31C22.6029 17.31 21.2914 19.485 17.8817 19.59ZM10.7074 12.585C9.828 12.585 9.13371 13.335 9.13371 14.25C9.13371 15.165 9.84343 15.915 10.7074 15.915C11.5869 15.915 12.2811 15.165 12.2811 14.25C12.2966 13.335 11.5869 12.585 10.7074 12.585ZM16.3389 12.585C15.4594 12.585 14.7651 13.335 14.7651 14.25C14.7651 15.165 15.4749 15.915 16.3389 15.915C17.2183 15.915 17.9126 15.165 17.9126 14.25C17.9126 13.335 17.2183 12.585 16.3389 12.585Z" fill="rgba(0, 0, 0, 0.54)"/>
</svg>
